<mxfile host="app.diagrams.net" agent="Mozilla/5.0 (Windows NT 10.0; Win64; x64) AppleWebKit/537.36 (KHTML, like Gecko) Chrome/135.0.0.0 Safari/537.36" version="26.2.9">
  <diagram name="Page-1" id="uJ4slHFVSenyRaHa_3f_">
    <mxGraphModel dx="664" dy="639" grid="1" gridSize="10" guides="1" tooltips="1" connect="1" arrows="1" fold="1" page="1" pageScale="1" pageWidth="827" pageHeight="1169" math="0" shadow="0">
      <root>
        <mxCell id="0" />
        <mxCell id="1" parent="0" />
        <mxCell id="alKXnEtXt09CZx3_GMFY-1" value="" style="endArrow=none;html=1;rounded=0;exitX=0.5;exitY=1;exitDx=0;exitDy=0;startFill=0;" edge="1" parent="1" source="alKXnEtXt09CZx3_GMFY-4">
          <mxGeometry width="50" height="50" relative="1" as="geometry">
            <mxPoint x="190" y="280" as="sourcePoint" />
            <mxPoint x="570" y="170" as="targetPoint" />
            <Array as="points">
              <mxPoint x="150" y="170" />
            </Array>
          </mxGeometry>
        </mxCell>
        <mxCell id="alKXnEtXt09CZx3_GMFY-25" value="P" style="edgeLabel;html=1;align=center;verticalAlign=middle;resizable=0;points=[];" vertex="1" connectable="0" parent="alKXnEtXt09CZx3_GMFY-1">
          <mxGeometry x="-0.6893" y="3" relative="1" as="geometry">
            <mxPoint as="offset" />
          </mxGeometry>
        </mxCell>
        <mxCell id="alKXnEtXt09CZx3_GMFY-2" value="&lt;u&gt;PROJEK_ID&lt;/u&gt;" style="whiteSpace=wrap;html=1;align=center;fillColor=#1ba1e2;fontColor=#ffffff;strokeColor=#006EAF;" vertex="1" parent="1">
          <mxGeometry y="80" width="100" height="40" as="geometry" />
        </mxCell>
        <mxCell id="alKXnEtXt09CZx3_GMFY-4" value="&lt;u&gt;WERKNEMER_ID&lt;/u&gt;" style="whiteSpace=wrap;html=1;align=center;fillColor=#1ba1e2;fontColor=#ffffff;strokeColor=#006EAF;" vertex="1" parent="1">
          <mxGeometry x="100" y="80" width="100" height="40" as="geometry" />
        </mxCell>
        <mxCell id="alKXnEtXt09CZx3_GMFY-13" style="edgeStyle=orthogonalEdgeStyle;rounded=0;orthogonalLoop=1;jettySize=auto;html=1;" edge="1" parent="1" target="alKXnEtXt09CZx3_GMFY-5">
          <mxGeometry relative="1" as="geometry">
            <mxPoint x="250" y="40" as="sourcePoint" />
          </mxGeometry>
        </mxCell>
        <mxCell id="alKXnEtXt09CZx3_GMFY-19" style="edgeStyle=orthogonalEdgeStyle;rounded=0;orthogonalLoop=1;jettySize=auto;html=1;" edge="1" parent="1" target="alKXnEtXt09CZx3_GMFY-5">
          <mxGeometry relative="1" as="geometry">
            <mxPoint x="250" y="140" as="sourcePoint" />
          </mxGeometry>
        </mxCell>
        <mxCell id="alKXnEtXt09CZx3_GMFY-5" value="PROJEKNAAM" style="whiteSpace=wrap;html=1;align=center;" vertex="1" parent="1">
          <mxGeometry x="200" y="80" width="100" height="40" as="geometry" />
        </mxCell>
        <mxCell id="alKXnEtXt09CZx3_GMFY-14" style="edgeStyle=orthogonalEdgeStyle;rounded=0;orthogonalLoop=1;jettySize=auto;html=1;" edge="1" parent="1" target="alKXnEtXt09CZx3_GMFY-6">
          <mxGeometry relative="1" as="geometry">
            <mxPoint x="360" y="40" as="sourcePoint" />
          </mxGeometry>
        </mxCell>
        <mxCell id="alKXnEtXt09CZx3_GMFY-21" style="edgeStyle=orthogonalEdgeStyle;rounded=0;orthogonalLoop=1;jettySize=auto;html=1;" edge="1" parent="1" target="alKXnEtXt09CZx3_GMFY-6">
          <mxGeometry relative="1" as="geometry">
            <mxPoint x="360" y="170" as="sourcePoint" />
          </mxGeometry>
        </mxCell>
        <mxCell id="alKXnEtXt09CZx3_GMFY-6" value="WERKNEMERNAAM" style="whiteSpace=wrap;html=1;align=center;" vertex="1" parent="1">
          <mxGeometry x="300" y="80" width="120" height="40" as="geometry" />
        </mxCell>
        <mxCell id="alKXnEtXt09CZx3_GMFY-15" style="edgeStyle=orthogonalEdgeStyle;rounded=0;orthogonalLoop=1;jettySize=auto;html=1;" edge="1" parent="1" target="alKXnEtXt09CZx3_GMFY-7">
          <mxGeometry relative="1" as="geometry">
            <mxPoint x="470" y="40" as="sourcePoint" />
          </mxGeometry>
        </mxCell>
        <mxCell id="alKXnEtXt09CZx3_GMFY-22" style="edgeStyle=orthogonalEdgeStyle;rounded=0;orthogonalLoop=1;jettySize=auto;html=1;" edge="1" parent="1" target="alKXnEtXt09CZx3_GMFY-7">
          <mxGeometry relative="1" as="geometry">
            <mxPoint x="470" y="170" as="sourcePoint" />
          </mxGeometry>
        </mxCell>
        <mxCell id="alKXnEtXt09CZx3_GMFY-7" value="POSISIE" style="whiteSpace=wrap;html=1;align=center;" vertex="1" parent="1">
          <mxGeometry x="420" y="80" width="100" height="40" as="geometry" />
        </mxCell>
        <mxCell id="alKXnEtXt09CZx3_GMFY-16" style="edgeStyle=orthogonalEdgeStyle;rounded=0;orthogonalLoop=1;jettySize=auto;html=1;" edge="1" parent="1" target="alKXnEtXt09CZx3_GMFY-8">
          <mxGeometry relative="1" as="geometry">
            <mxPoint x="570.0000000000002" y="40" as="sourcePoint" />
          </mxGeometry>
        </mxCell>
        <mxCell id="alKXnEtXt09CZx3_GMFY-23" style="edgeStyle=orthogonalEdgeStyle;rounded=0;orthogonalLoop=1;jettySize=auto;html=1;" edge="1" parent="1" target="alKXnEtXt09CZx3_GMFY-8">
          <mxGeometry relative="1" as="geometry">
            <mxPoint x="570.0000000000002" y="170" as="sourcePoint" />
          </mxGeometry>
        </mxCell>
        <mxCell id="alKXnEtXt09CZx3_GMFY-8" value="UURTARIEF" style="whiteSpace=wrap;html=1;align=center;" vertex="1" parent="1">
          <mxGeometry x="520" y="80" width="100" height="40" as="geometry" />
        </mxCell>
        <mxCell id="alKXnEtXt09CZx3_GMFY-17" style="edgeStyle=orthogonalEdgeStyle;rounded=0;orthogonalLoop=1;jettySize=auto;html=1;" edge="1" parent="1" target="alKXnEtXt09CZx3_GMFY-9">
          <mxGeometry relative="1" as="geometry">
            <mxPoint x="669.9999999999998" y="40" as="sourcePoint" />
          </mxGeometry>
        </mxCell>
        <mxCell id="alKXnEtXt09CZx3_GMFY-9" value="UREGEWERK" style="whiteSpace=wrap;html=1;align=center;" vertex="1" parent="1">
          <mxGeometry x="620" y="80" width="100" height="40" as="geometry" />
        </mxCell>
        <mxCell id="alKXnEtXt09CZx3_GMFY-11" value="" style="endArrow=none;html=1;rounded=0;startFill=0;" edge="1" parent="1">
          <mxGeometry width="50" height="50" relative="1" as="geometry">
            <mxPoint x="100" y="60" as="sourcePoint" />
            <mxPoint x="670" y="40" as="targetPoint" />
            <Array as="points">
              <mxPoint x="100" y="40" />
            </Array>
          </mxGeometry>
        </mxCell>
        <mxCell id="alKXnEtXt09CZx3_GMFY-12" value="" style="endArrow=none;html=1;rounded=0;exitX=0.5;exitY=0;exitDx=0;exitDy=0;entryX=0.5;entryY=0;entryDx=0;entryDy=0;startFill=0;" edge="1" parent="1" source="alKXnEtXt09CZx3_GMFY-2" target="alKXnEtXt09CZx3_GMFY-4">
          <mxGeometry width="50" height="50" relative="1" as="geometry">
            <mxPoint x="90" y="60" as="sourcePoint" />
            <mxPoint x="140" y="10" as="targetPoint" />
            <Array as="points">
              <mxPoint x="50" y="60" />
              <mxPoint x="150" y="60" />
            </Array>
          </mxGeometry>
        </mxCell>
        <mxCell id="alKXnEtXt09CZx3_GMFY-18" value="" style="endArrow=none;html=1;rounded=0;exitX=0.5;exitY=1;exitDx=0;exitDy=0;startFill=0;" edge="1" parent="1" source="alKXnEtXt09CZx3_GMFY-2">
          <mxGeometry width="50" height="50" relative="1" as="geometry">
            <mxPoint x="200" y="290" as="sourcePoint" />
            <mxPoint x="250" y="140" as="targetPoint" />
            <Array as="points">
              <mxPoint x="50" y="140" />
            </Array>
          </mxGeometry>
        </mxCell>
        <mxCell id="alKXnEtXt09CZx3_GMFY-24" value="P" style="edgeLabel;html=1;align=center;verticalAlign=middle;resizable=0;points=[];" vertex="1" connectable="0" parent="alKXnEtXt09CZx3_GMFY-18">
          <mxGeometry x="-0.873" y="-1" relative="1" as="geometry">
            <mxPoint x="-1" as="offset" />
          </mxGeometry>
        </mxCell>
        <mxCell id="alKXnEtXt09CZx3_GMFY-26" value="1NF(&lt;u&gt;PROJEK_ID&lt;/u&gt;, &lt;u&gt;WERKNEMER_ID&lt;/u&gt;, PROJEKNAAM, WERKNEMERNAAM, POSISIE, UURTARIEF, UREGEWERK)" style="text;html=1;align=center;verticalAlign=middle;resizable=0;points=[];autosize=1;strokeColor=none;fillColor=none;" vertex="1" parent="1">
          <mxGeometry x="25" y="188" width="650" height="30" as="geometry" />
        </mxCell>
        <mxCell id="alKXnEtXt09CZx3_GMFY-27" value="GEDEELTELIKE AFHANKLIKHEDE:" style="text;html=1;align=center;verticalAlign=middle;resizable=0;points=[];autosize=1;strokeColor=none;fillColor=none;" vertex="1" parent="1">
          <mxGeometry y="240" width="220" height="30" as="geometry" />
        </mxCell>
        <mxCell id="alKXnEtXt09CZx3_GMFY-28" value="(PROJEK_ID =&amp;gt; PROJEKNAAM)" style="text;html=1;align=center;verticalAlign=middle;resizable=0;points=[];autosize=1;strokeColor=none;fillColor=none;" vertex="1" parent="1">
          <mxGeometry x="240" y="238" width="200" height="30" as="geometry" />
        </mxCell>
        <mxCell id="alKXnEtXt09CZx3_GMFY-29" value="(WERKNEMER_ID =&amp;gt; WERKNEMERNAAM, POSISIE, UURTARIEF)" style="text;html=1;align=center;verticalAlign=middle;resizable=0;points=[];autosize=1;strokeColor=none;fillColor=none;" vertex="1" parent="1">
          <mxGeometry x="240" y="268" width="390" height="30" as="geometry" />
        </mxCell>
        <mxCell id="alKXnEtXt09CZx3_GMFY-31" value="1NF:" style="text;html=1;align=center;verticalAlign=middle;resizable=0;points=[];autosize=1;strokeColor=none;fillColor=none;" vertex="1" parent="1">
          <mxGeometry x="10" y="8" width="50" height="30" as="geometry" />
        </mxCell>
        <mxCell id="alKXnEtXt09CZx3_GMFY-32" value="2NF:" style="text;html=1;align=center;verticalAlign=middle;resizable=0;points=[];autosize=1;strokeColor=none;fillColor=none;" vertex="1" parent="1">
          <mxGeometry y="318" width="50" height="30" as="geometry" />
        </mxCell>
        <mxCell id="alKXnEtXt09CZx3_GMFY-33" value="&lt;u&gt;PROJEK_ID&lt;/u&gt;" style="whiteSpace=wrap;html=1;align=center;fillColor=#1ba1e2;fontColor=#ffffff;strokeColor=#006EAF;" vertex="1" parent="1">
          <mxGeometry x="20" y="360" width="100" height="40" as="geometry" />
        </mxCell>
        <mxCell id="alKXnEtXt09CZx3_GMFY-34" value="PROJEKNAAM" style="whiteSpace=wrap;html=1;align=center;" vertex="1" parent="1">
          <mxGeometry x="120" y="360" width="100" height="40" as="geometry" />
        </mxCell>
        <mxCell id="alKXnEtXt09CZx3_GMFY-35" value="" style="endArrow=classic;html=1;rounded=0;exitX=0.5;exitY=0;exitDx=0;exitDy=0;entryX=0.5;entryY=0;entryDx=0;entryDy=0;" edge="1" parent="1" source="alKXnEtXt09CZx3_GMFY-33" target="alKXnEtXt09CZx3_GMFY-34">
          <mxGeometry width="50" height="50" relative="1" as="geometry">
            <mxPoint x="140" y="350" as="sourcePoint" />
            <mxPoint x="190" y="300" as="targetPoint" />
            <Array as="points">
              <mxPoint x="70" y="330" />
              <mxPoint x="170" y="330" />
            </Array>
          </mxGeometry>
        </mxCell>
        <mxCell id="alKXnEtXt09CZx3_GMFY-36" value="PROJEK(&lt;u&gt;PROJEK_ID&lt;/u&gt;, PROJEKNAAM)" style="text;html=1;align=center;verticalAlign=middle;resizable=0;points=[];autosize=1;strokeColor=none;fillColor=none;" vertex="1" parent="1">
          <mxGeometry x="220" y="360" width="240" height="30" as="geometry" />
        </mxCell>
        <mxCell id="alKXnEtXt09CZx3_GMFY-37" value="&lt;u&gt;WERKNEMER_ID&lt;/u&gt;" style="whiteSpace=wrap;html=1;align=center;fillColor=#1ba1e2;fontColor=#ffffff;strokeColor=#006EAF;" vertex="1" parent="1">
          <mxGeometry x="20" y="440" width="100" height="40" as="geometry" />
        </mxCell>
        <mxCell id="alKXnEtXt09CZx3_GMFY-42" style="edgeStyle=orthogonalEdgeStyle;rounded=0;orthogonalLoop=1;jettySize=auto;html=1;" edge="1" parent="1" target="alKXnEtXt09CZx3_GMFY-38">
          <mxGeometry relative="1" as="geometry">
            <mxPoint x="180" y="410" as="sourcePoint" />
          </mxGeometry>
        </mxCell>
        <mxCell id="alKXnEtXt09CZx3_GMFY-38" value="WERKNEMERNAAM" style="whiteSpace=wrap;html=1;align=center;" vertex="1" parent="1">
          <mxGeometry x="120" y="440" width="120" height="40" as="geometry" />
        </mxCell>
        <mxCell id="alKXnEtXt09CZx3_GMFY-43" style="edgeStyle=orthogonalEdgeStyle;rounded=0;orthogonalLoop=1;jettySize=auto;html=1;" edge="1" parent="1" target="alKXnEtXt09CZx3_GMFY-39">
          <mxGeometry relative="1" as="geometry">
            <mxPoint x="290" y="410" as="sourcePoint" />
          </mxGeometry>
        </mxCell>
        <mxCell id="alKXnEtXt09CZx3_GMFY-39" value="POSISIE" style="whiteSpace=wrap;html=1;align=center;" vertex="1" parent="1">
          <mxGeometry x="240" y="440" width="100" height="40" as="geometry" />
        </mxCell>
        <mxCell id="alKXnEtXt09CZx3_GMFY-44" style="edgeStyle=orthogonalEdgeStyle;rounded=0;orthogonalLoop=1;jettySize=auto;html=1;" edge="1" parent="1" target="alKXnEtXt09CZx3_GMFY-40">
          <mxGeometry relative="1" as="geometry">
            <mxPoint x="390" y="410" as="sourcePoint" />
          </mxGeometry>
        </mxCell>
        <mxCell id="alKXnEtXt09CZx3_GMFY-40" value="UURTARIEF" style="whiteSpace=wrap;html=1;align=center;" vertex="1" parent="1">
          <mxGeometry x="340" y="440" width="100" height="40" as="geometry" />
        </mxCell>
        <mxCell id="alKXnEtXt09CZx3_GMFY-41" value="" style="endArrow=none;html=1;rounded=0;exitX=0.5;exitY=0;exitDx=0;exitDy=0;startFill=0;" edge="1" parent="1">
          <mxGeometry width="50" height="50" relative="1" as="geometry">
            <mxPoint x="70" y="440" as="sourcePoint" />
            <mxPoint x="390" y="410" as="targetPoint" />
            <Array as="points">
              <mxPoint x="70" y="410" />
              <mxPoint x="170" y="410" />
            </Array>
          </mxGeometry>
        </mxCell>
        <mxCell id="alKXnEtXt09CZx3_GMFY-45" value="WERKNEMER(&lt;u&gt;WERKNEMER_ID&lt;/u&gt;, WERKNEMERNAAM, POSISIE, UURTARIEF)" style="text;html=1;align=center;verticalAlign=middle;resizable=0;points=[];autosize=1;strokeColor=none;fillColor=none;" vertex="1" parent="1">
          <mxGeometry x="10" y="490" width="460" height="30" as="geometry" />
        </mxCell>
        <mxCell id="alKXnEtXt09CZx3_GMFY-47" value="&lt;u&gt;PROJEK_ID&lt;/u&gt;" style="whiteSpace=wrap;html=1;align=center;fillColor=#1ba1e2;fontColor=#ffffff;strokeColor=#006EAF;" vertex="1" parent="1">
          <mxGeometry x="10" y="580" width="100" height="40" as="geometry" />
        </mxCell>
        <mxCell id="alKXnEtXt09CZx3_GMFY-48" value="&lt;u&gt;WERKNEMER_ID&lt;/u&gt;" style="whiteSpace=wrap;html=1;align=center;fillColor=#1ba1e2;fontColor=#ffffff;strokeColor=#006EAF;" vertex="1" parent="1">
          <mxGeometry x="110" y="580" width="100" height="40" as="geometry" />
        </mxCell>
        <mxCell id="alKXnEtXt09CZx3_GMFY-49" value="" style="endArrow=none;html=1;rounded=0;exitX=0.5;exitY=0;exitDx=0;exitDy=0;entryX=0.5;entryY=0;entryDx=0;entryDy=0;startFill=0;" edge="1" parent="1" source="alKXnEtXt09CZx3_GMFY-47" target="alKXnEtXt09CZx3_GMFY-48">
          <mxGeometry width="50" height="50" relative="1" as="geometry">
            <mxPoint x="100" y="560" as="sourcePoint" />
            <mxPoint x="150" y="510" as="targetPoint" />
            <Array as="points">
              <mxPoint x="60" y="560" />
              <mxPoint x="160" y="560" />
            </Array>
          </mxGeometry>
        </mxCell>
        <mxCell id="alKXnEtXt09CZx3_GMFY-52" style="edgeStyle=orthogonalEdgeStyle;rounded=0;orthogonalLoop=1;jettySize=auto;html=1;" edge="1" parent="1" target="alKXnEtXt09CZx3_GMFY-50">
          <mxGeometry relative="1" as="geometry">
            <mxPoint x="260" y="530" as="sourcePoint" />
          </mxGeometry>
        </mxCell>
        <mxCell id="alKXnEtXt09CZx3_GMFY-50" value="UREGEWERK" style="whiteSpace=wrap;html=1;align=center;" vertex="1" parent="1">
          <mxGeometry x="210" y="580" width="100" height="40" as="geometry" />
        </mxCell>
        <mxCell id="alKXnEtXt09CZx3_GMFY-51" value="" style="endArrow=none;html=1;rounded=0;exitX=0.5;exitY=0;exitDx=0;exitDy=0;startFill=0;" edge="1" parent="1">
          <mxGeometry width="50" height="50" relative="1" as="geometry">
            <mxPoint x="110" y="560" as="sourcePoint" />
            <mxPoint x="260" y="530" as="targetPoint" />
            <Array as="points">
              <mxPoint x="110" y="530" />
              <mxPoint x="210" y="530" />
            </Array>
          </mxGeometry>
        </mxCell>
        <mxCell id="alKXnEtXt09CZx3_GMFY-53" value="WERKTYE(&lt;u&gt;PROJEK_ID&lt;/u&gt;, &lt;u&gt;WERKNEMER_ID&lt;/u&gt;, UREGEWERK)" style="text;html=1;align=center;verticalAlign=middle;resizable=0;points=[];autosize=1;strokeColor=none;fillColor=none;" vertex="1" parent="1">
          <mxGeometry x="310" y="585" width="350" height="30" as="geometry" />
        </mxCell>
      </root>
    </mxGraphModel>
  </diagram>
</mxfile>
